<mxfile host="app.diagrams.net" modified="2023-06-17T22:20:48.444Z" agent="Mozilla/5.0 (Windows NT 10.0; Win64; x64) AppleWebKit/537.36 (KHTML, like Gecko) Chrome/114.0.0.0 Safari/537.36" version="21.4.0" etag="WBoRuUPYHkhTgoIHMn7m" type="github">
  <diagram name="Page-1" id="lt1p-JiupZklEoKO3r55">
    <mxGraphModel>
      <root>
        <mxCell id="0" />
        <mxCell id="1" parent="0" />
        <mxCell id="2" value="NIST800-SP12" style="whiteSpace=wrap;strokeWidth=2;" vertex="1" parent="1">
          <mxGeometry x="695" width="111" height="34" as="geometry" />
        </mxCell>
        <mxCell id="3" value="Cybersecurity" style="whiteSpace=wrap;strokeWidth=2;" vertex="1" parent="1">
          <mxGeometry x="694" y="103" width="114" height="34" as="geometry" />
        </mxCell>
        <mxCell id="4" value="NIST800-122" style="whiteSpace=wrap;strokeWidth=2;" vertex="1" parent="1">
          <mxGeometry y="206" width="103" height="34" as="geometry" />
        </mxCell>
        <mxCell id="5" value="NIST800-34R2" style="whiteSpace=wrap;strokeWidth=2;" vertex="1" parent="1">
          <mxGeometry x="153" y="206" width="112" height="34" as="geometry" />
        </mxCell>
        <mxCell id="6" value="NIST800-53A" style="whiteSpace=wrap;strokeWidth=2;" vertex="1" parent="1">
          <mxGeometry x="315" y="206" width="104" height="34" as="geometry" />
        </mxCell>
        <mxCell id="7" value="NIST800-115" style="whiteSpace=wrap;strokeWidth=2;" vertex="1" parent="1">
          <mxGeometry x="470" y="206" width="103" height="34" as="geometry" />
        </mxCell>
        <mxCell id="8" value="NIST800-37" style="whiteSpace=wrap;strokeWidth=2;" vertex="1" parent="1">
          <mxGeometry x="622" y="206" width="95" height="34" as="geometry" />
        </mxCell>
        <mxCell id="9" value="NIST800-53Rev4" style="whiteSpace=wrap;strokeWidth=2;" vertex="1" parent="1">
          <mxGeometry x="768" y="206" width="129" height="34" as="geometry" />
        </mxCell>
        <mxCell id="10" value="NIST800-128" style="whiteSpace=wrap;strokeWidth=2;" vertex="1" parent="1">
          <mxGeometry x="946" y="206" width="103" height="34" as="geometry" />
        </mxCell>
        <mxCell id="11" value="NIST800-137" style="whiteSpace=wrap;strokeWidth=2;" vertex="1" parent="1">
          <mxGeometry x="1100" y="206" width="103" height="34" as="geometry" />
        </mxCell>
        <mxCell id="12" value="NIST800-140" style="whiteSpace=wrap;strokeWidth=2;" vertex="1" parent="1">
          <mxGeometry x="1253" y="206" width="103" height="34" as="geometry" />
        </mxCell>
        <mxCell id="13" value="NIST800-160" style="whiteSpace=wrap;strokeWidth=2;" vertex="1" parent="1">
          <mxGeometry x="1407" y="206" width="103" height="34" as="geometry" />
        </mxCell>
        <mxCell id="14" value="is the top publication" style="curved=1;startArrow=none;endArrow=block;exitX=0.5036423141891891;exitY=1;entryX=0.4991604989035088;entryY=0;" edge="1" parent="1" source="2" target="3">
          <mxGeometry relative="1" as="geometry">
            <Array as="points" />
          </mxGeometry>
        </mxCell>
        <mxCell id="15" value="includes" style="curved=1;startArrow=none;endArrow=block;exitX=-0.0022101151315789473;exitY=0.6237727201277101;entryX=0.4993932038834951;entryY=0;" edge="1" parent="1" source="3" target="4">
          <mxGeometry relative="1" as="geometry">
            <Array as="points">
              <mxPoint x="51" y="172" />
            </Array>
          </mxGeometry>
        </mxCell>
        <mxCell id="16" value="includes" style="curved=1;startArrow=none;endArrow=block;exitX=-0.0022101151315789473;exitY=0.6597512999238714;entryX=0.49972098214285715;entryY=0;" edge="1" parent="1" source="3" target="5">
          <mxGeometry relative="1" as="geometry">
            <Array as="points">
              <mxPoint x="209" y="172" />
            </Array>
          </mxGeometry>
        </mxCell>
        <mxCell id="17" value="includes" style="curved=1;startArrow=none;endArrow=block;exitX=-0.0022101151315789473;exitY=0.7256885157769735;entryX=0.5028921274038461;entryY=0;" edge="1" parent="1" source="3" target="6">
          <mxGeometry relative="1" as="geometry">
            <Array as="points">
              <mxPoint x="367" y="172" />
            </Array>
          </mxGeometry>
        </mxCell>
        <mxCell id="18" value="includes" style="curved=1;startArrow=none;endArrow=block;exitX=-0.0022101151315789473;exitY=0.876530949272245;entryX=0.49491808252427183;entryY=0;" edge="1" parent="1" source="3" target="7">
          <mxGeometry relative="1" as="geometry">
            <Array as="points">
              <mxPoint x="521" y="172" />
            </Array>
          </mxGeometry>
        </mxCell>
        <mxCell id="19" value="includes" style="curved=1;startArrow=none;endArrow=block;exitX=0.26477052860458206;exitY=1;entryX=0.5048108552631579;entryY=0;" edge="1" parent="1" source="3" target="8">
          <mxGeometry relative="1" as="geometry">
            <Array as="points">
              <mxPoint x="670" y="172" />
            </Array>
          </mxGeometry>
        </mxCell>
        <mxCell id="20" value="includes" style="curved=1;startArrow=none;endArrow=block;exitX=0.7335504692024355;exitY=1;entryX=0.49497335271317827;entryY=0;" edge="1" parent="1" source="3" target="9">
          <mxGeometry relative="1" as="geometry">
            <Array as="points">
              <mxPoint x="832" y="172" />
            </Array>
          </mxGeometry>
        </mxCell>
        <mxCell id="21" value="includes" style="curved=1;startArrow=none;endArrow=block;exitX=1.0005311129385965;exitY=0.8504530485612809;entryX=0.5042854975728155;entryY=0;" edge="1" parent="1" source="3" target="10">
          <mxGeometry relative="1" as="geometry">
            <Array as="points">
              <mxPoint x="998" y="172" />
            </Array>
          </mxGeometry>
        </mxCell>
        <mxCell id="22" value="includes" style="curved=1;startArrow=none;endArrow=block;exitX=1.0005311129385965;exitY=0.7161596823472616;entryX=0.4992035800970874;entryY=0;" edge="1" parent="1" source="3" target="11">
          <mxGeometry relative="1" as="geometry">
            <Array as="points">
              <mxPoint x="1151" y="172" />
            </Array>
          </mxGeometry>
        </mxCell>
        <mxCell id="23" value="includes" style="curved=1;startArrow=none;endArrow=block;exitX=1.0005311129385965;exitY=0.6562751520086039;entryX=0.5038304004854369;entryY=0;" edge="1" parent="1" source="3" target="12">
          <mxGeometry relative="1" as="geometry">
            <Array as="points">
              <mxPoint x="1305" y="172" />
            </Array>
          </mxGeometry>
        </mxCell>
        <mxCell id="24" value="includes" style="curved=1;startArrow=none;endArrow=block;exitX=1.0005311129385965;exitY=0.6223731042511836;entryX=0.49874848300970875;entryY=0;" edge="1" parent="1" source="3" target="13">
          <mxGeometry relative="1" as="geometry">
            <Array as="points">
              <mxPoint x="1458" y="172" />
            </Array>
          </mxGeometry>
        </mxCell>
      </root>
    </mxGraphModel>
  </diagram>
</mxfile>
